<svg xmlns="http://www.w3.org/2000/svg" width="100" height="100"><path d="M99.935 83.102q0 7.773-5.168 12.276-5.168 4.502-13.735 4.502h-61.88q-8.567 0-13.735-4.502-5.168-4.502-5.168-12.276 0-3.433.248-6.705.248-3.271.991-7.061t1.876-7.028q1.133-3.239 3.044-6.316 1.912-3.077 4.39-5.247 2.478-2.17 6.053-3.466 3.575-1.296 7.894-1.296.637 0 2.974 1.393 2.336 1.393 5.275 3.109 2.938 1.717 7.646 3.109 4.708 1.393 9.452 1.393t9.452-1.393q4.708-1.393 7.646-3.109 2.938-1.717 5.275-3.109 2.336-1.393 2.974-1.393 4.319 0 7.894 1.296t6.053 3.466q2.478 2.17 4.39 5.247 1.912 3.077 3.044 6.316 1.133 3.239 1.876 7.028.743 3.79.991 7.061t.248 6.705zm-22.656-57.847q0 10.3-7.965 17.587-7.965 7.288-19.222 7.288-11.257 0-19.222-7.288-7.965-7.288-7.965-17.587 0-10.3 7.965-17.587 7.965-7.288 19.222-7.288 11.257 0 19.222 7.288 7.965 7.288 7.965 17.587z" fill="#999"/></svg>