<svg xmlns="http://www.w3.org/2000/svg" width="35" height="35"><path d="M34.834 29.06q0 2.697-1.793 4.258-1.793 1.562-4.766 1.562h-21.47q-2.972 0-4.766-1.562-1.793-1.562-1.793-4.258 0-1.191.086-2.326t.344-2.449q.258-1.315.651-2.438.393-1.124 1.056-2.191.663-1.067 1.523-1.82.86-.753 2.1-1.202 1.241-.449 2.739-.449.221 0 1.032.483t1.83 1.079q1.019.595 2.653 1.079 1.634.483 3.279.483 1.646 0 3.279-.483 1.634-.483 2.653-1.079 1.019-.595 1.83-1.079.811-.483 1.032-.483 1.498 0 2.739.449 1.241.449 2.1 1.202.86.753 1.523 1.82.663 1.067 1.056 2.191.393 1.124.651 2.438.258 1.315.344 2.449.086 1.135.086 2.326zm-7.861-20.066q0 3.573-2.764 6.101t-6.669 2.528q-3.906 0-6.669-2.528-2.764-2.528-2.764-6.101t2.764-6.101q2.764-2.528 6.669-2.528 3.906 0 6.669 2.528 2.764 2.528 2.764 6.101z" fill="#999"/></svg>