<svg xmlns="http://www.w3.org/2000/svg" width="35" height="35"><path d="M34.834 29.06q0 2.696-1.793 4.258-1.792 1.56-4.764 1.56H6.806q-2.972 0-4.765-1.56Q.248 31.756.248 29.06q0-1.19.086-2.326.086-1.135.344-2.45.258-1.314.65-2.438.394-1.123 1.057-2.19.664-1.068 1.523-1.82.86-.753 2.1-1.203 1.24-.45 2.74-.45.22 0 1.03.484.812.483 1.83 1.078 1.02.596 2.654 1.08 1.635.482 3.28.482 1.647 0 3.28-.483 1.634-.483 2.653-1.08 1.02-.594 1.83-1.077t1.032-.483q1.498 0 2.74.45 1.24.45 2.1 1.2.86.754 1.522 1.82.663 1.07 1.056 2.192.394 1.124.65 2.438.26 1.315.345 2.45.086 1.135.086 2.326zm-7.86-20.067q0 3.573-2.764 6.1-2.763 2.53-6.67 2.53-3.905 0-6.668-2.53-2.764-2.527-2.764-6.1 0-3.573 2.764-6.1 2.763-2.53 6.67-2.53 3.905 0 6.668 2.53 2.764 2.527 2.764 6.1z" fill="#999"/></svg>