<svg xmlns="http://www.w3.org/2000/svg" width="512" height="512" viewBox="0 0 512 512"><path d="M512.53 425.51q0 40.017-26.56 63.193-26.56 23.176-70.585 23.176H97.392q-44.025 0-70.585-23.177Q.247 465.527.247 425.51q0-17.673 1.274-34.513t5.094-36.35q3.82-19.507 9.642-36.18 5.82-16.674 15.645-32.514 9.825-15.84 22.56-27.01 12.733-11.172 31.107-17.84 18.374-6.67 40.568-6.67 3.274 0 15.28 7.17 12.008 7.168 27.107 16.005 15.1 8.837 39.294 16.007 24.195 7.17 48.572 7.17 24.377 0 48.573-7.17t39.295-16.007q15.1-8.837 27.106-16.006 12.007-7.17 15.282-7.17 22.194 0 40.568 6.67t31.108 17.84q12.734 11.17 22.558 27.01 9.823 15.84 15.645 32.515 5.822 16.673 9.642 36.18 3.82 19.51 5.094 36.35 1.274 16.84 1.274 34.514zM396.1 127.723q0 53.02-40.932 90.537-40.932 37.514-98.782 37.514-57.85 0-98.78-37.515-40.933-37.517-40.933-90.538 0-53.022 40.932-90.538Q198.537-.33 256.387-.33t98.783 37.514q40.932 37.516 40.932 90.538z" fill="#999"/></svg>