<svg xmlns="http://www.w3.org/2000/svg" width="512" height="512"><path d="M512.529 425.511q0 40.016-26.56 63.193-26.56 23.176-70.584 23.176h-317.993q-44.024 0-70.584-23.176-26.56-23.176-26.56-63.193 0-17.674 1.273-34.514 1.273-16.84 5.094-36.348 3.82-19.508 9.642-36.182 5.821-16.673 15.645-32.513t22.558-27.011q12.734-11.171 31.108-17.841 18.374-6.669 40.568-6.669 3.275 0 15.281 7.17 12.007 7.17 27.106 16.007 15.099 8.837 39.294 16.007 24.195 7.17 48.572 7.17 24.377 0 48.572-7.17 24.195-7.17 39.294-16.007 15.099-8.837 27.106-16.007 12.007-7.17 15.281-7.17 22.194 0 40.568 6.669t31.108 17.841q12.734 11.171 22.558 27.011t15.645 32.513q5.821 16.674 9.642 36.182 3.82 19.508 5.094 36.348 1.273 16.84 1.273 34.514zm-116.428-297.789q0 53.022-40.932 90.537-40.932 37.515-98.782 37.515-57.85 0-98.782-37.515-40.932-37.515-40.932-90.537 0-53.022 40.932-90.537 40.932-37.515 98.782-37.515 57.85 0 98.782 37.515 40.932 37.515 40.932 90.537z" fill="#999"/></svg>