<svg xmlns="http://www.w3.org/2000/svg" width="100" height="100" viewBox="0 0 100 100"><path d="M99.935 83.102q0 7.773-5.17 12.275Q89.6 99.88 81.032 99.88H19.15q-8.566 0-13.734-4.503-5.17-4.502-5.17-12.275 0-3.433.25-6.705.247-3.27.99-7.06.744-3.79 1.877-7.03 1.132-3.238 3.044-6.315 1.912-3.077 4.39-5.247 2.478-2.17 6.053-3.466 3.576-1.296 7.894-1.296.638 0 2.974 1.392 2.336 1.393 5.275 3.11 2.938 1.716 7.646 3.11 4.707 1.392 9.45 1.392 4.745 0 9.453-1.393 4.708-1.393 7.646-3.11 2.938-1.716 5.274-3.11 2.336-1.39 2.974-1.39 4.32 0 7.894 1.294 3.575 1.295 6.053 3.465 2.478 2.17 4.39 5.247 1.912 3.077 3.044 6.316 1.132 3.24 1.876 7.028.743 3.79.99 7.06.25 3.273.25 6.706zM77.278 25.254q0 10.3-7.965 17.588-7.965 7.287-19.222 7.287-11.256 0-19.22-7.288-7.966-7.288-7.966-17.588T30.87 7.667Q38.833.38 50.09.38q11.258 0 19.223 7.287 7.965 7.288 7.965 17.587z" fill="#999"/></svg>