<!DOCTYPE svg PUBLIC "-//W3C//DTD SVG 1.1//EN" "http://www.w3.org/Graphics/SVG/1.1/DTD/svg11.dtd" [
	<!ENTITY ns_flows "http://ns.adobe.com/Flows/1.0/">
]><svg xmlns="http://www.w3.org/2000/svg" width="16" height="16" viewBox="-0.1 0 16 16" preserveAspectRatio="xMinYMid meet" overflow="visible" enable-background="new -0.1 0 16 16"><path d="M14.3 3.8c.5.3.8.7 1 1.1.2.5.4 1 .4 1.7 0 1.5-.6 2.8-1.9 3.8-1.3.9-3.1 1.4-5.4 1.4h-.3c-.6 0-1.1.4-1.2 1l-.5 2.2c-.1.5-.7 1-1.2 1h-1.4c-.5 0-.9-.4-.8-1l.2-1h.3c.5 0 1.1-.4 1.2-1l.5-2.3c.1-.5.7-1 1.2-1h.3c2.3 0 4.1-.5 5.4-1.4 1.3-1 1.9-2.2 1.9-3.8 0-.3 0-.7-.1-1 .2.2.3.2.4.3zm-1.9-1.9c-.2-.5-.6-.8-1-1.1-.5-.3-1-.5-1.6-.6-.7-.1-1.3-.2-1.3-.2-.6 0-1.5 0-2 0h-2.7c-.5 0-1.1.4-1.2 1l-2.6 11c-.1.5.2 1 .8 1h1.4c.5 0 1.1-.4 1.2-1l.5-2.3c.1-.5.7-1 1.2-1h.3c2.3 0 4.1-.5 5.4-1.4 1.3-1 1.9-2.2 1.9-3.7 0-.7-.1-1.3-.3-1.7zm-4.1 3.8c-.6.4-1.4.5-1.4.5-.5.1-1.2.1-1.6.1-.3 0-.5-.4-.4-1l.5-1.9c.1-.5.7-1 1.2-1h.4c.7 0 1.3.1 1.6.4.4.2.6.6.6 1.1 0 .8-.3 1.4-.9 1.8z" fill="#999"/></svg>