<?xml version="1.0" encoding="UTF-8" standalone="no"?>
<!-- Generator: Adobe Illustrator 15.1.0, SVG Export Plug-In  -->

<svg
   xmlns:dc="http://purl.org/dc/elements/1.1/"
   xmlns:cc="http://creativecommons.org/ns#"
   xmlns:rdf="http://www.w3.org/1999/02/22-rdf-syntax-ns#"
   xmlns:svg="http://www.w3.org/2000/svg"
   xmlns="http://www.w3.org/2000/svg"
   xmlns:sodipodi="http://sodipodi.sourceforge.net/DTD/sodipodi-0.dtd"
   xmlns:inkscape="http://www.inkscape.org/namespaces/inkscape"
   version="1.1"
   x="0px"
   y="0px"
   width="12px"
   height="12px"
   viewBox="0 0 12 12"
   style="overflow:visible;enable-background:new 0 0 12 12;"
   xml:space="preserve"
   preserveAspectRatio="xMinYMid meet"
   id="svg2"
   inkscape:version="0.48.4 r9939"
   sodipodi:docname="more.svg"
   inkscape:export-filename="C:\wamp\www\moodletheme\theme\moment\pix_core\t\more.png"
   inkscape:export-xdpi="90"
   inkscape:export-ydpi="90"><metadata
   id="metadata10"><rdf:RDF><cc:Work
       rdf:about=""><dc:format>image/svg+xml</dc:format><dc:type
         rdf:resource="http://purl.org/dc/dcmitype/StillImage" /><dc:title></dc:title></cc:Work></rdf:RDF></metadata><sodipodi:namedview
   pagecolor="#ffffff"
   bordercolor="#666666"
   borderopacity="1"
   objecttolerance="10"
   gridtolerance="10"
   guidetolerance="10"
   inkscape:pageopacity="0"
   inkscape:pageshadow="2"
   inkscape:window-width="640"
   inkscape:window-height="480"
   id="namedview8"
   showgrid="false"
   inkscape:zoom="19.666667"
   inkscape:cx="6"
   inkscape:cy="6"
   inkscape:window-x="0"
   inkscape:window-y="0"
   inkscape:window-maximized="0"
   inkscape:current-layer="svg2" />
<defs
   id="defs4">
</defs>
<path
   style="fill:#999999;"
   d="M11,4.5H7.5V1c0-0.5-0.5-1-1-1h-1c-0.5,0-1,0.5-1,1v3.5L1,4.5c-0.5,0-1,0.5-1,1v1c0,0.5,0.5,1,1,1  h3.5V11c0,0.5,0.5,1,1,1h1c0.5,0,1-0.5,1-1V7.5H11c0.6,0,1-0.5,1-1l0-1C12,5,11.6,4.5,11,4.5z"
   id="path6" />
</svg>