<!DOCTYPE svg PUBLIC "-//W3C//DTD SVG 1.1//EN" "http://www.w3.org/Graphics/SVG/1.1/DTD/svg11.dtd" [
	<!ENTITY ns_flows "http://ns.adobe.com/Flows/1.0/">
]><svg xmlns="http://www.w3.org/2000/svg" width="16" height="16" viewBox="0 0 16 16" preserveAspectRatio="xMinYMid meet" overflow="visible"><path d="M9 16h-8c-.5 0-1-.5-1-1v-14c0-.5.5-1 1-1h8v2h-6c-.6 0-1 .4-1 1v10c0 .6.4 1 1 1h6v2zm7-10.8c0 1.9-1.6 3.5-3.5 3.5-.4 0-.7-.1-1-.2l-1.5 1.5h-1v1h-1v1h-3v-2l4.1-4.1c-.1-.2-.1-.4-.1-.7 0-1.9 1.6-3.5 3.5-3.5s3.5 1.6 3.5 3.5zm-1.5-1.2c0-.6-.4-1-1-1s-1 .4-1 1 .4 1 1 1c.5 0 1-.4 1-1z" fill="#999"/></svg>