<!DOCTYPE svg PUBLIC "-//W3C//DTD SVG 1.1//EN" "http://www.w3.org/Graphics/SVG/1.1/DTD/svg11.dtd" [
	<!ENTITY ns_flows "http://ns.adobe.com/Flows/1.0/">
]><svg xmlns="http://www.w3.org/2000/svg" width="16" height="16" viewBox="-0.6 0 16 16" preserveAspectRatio="xMinYMid meet" overflow="visible"><path d="M13.5 10.5c1.2-4.7 1.5-6.7-1.2-8.9-.9-.8-.2-1.3-1.1-1.6-.9-.3-.6.6-1.8.5C6.1.5 5.1 2.2 3 6.6c-.9 1.9-2.3.8-3 2.7-.5 1.4 2 4.3 5.9 5.7 3.9 1.5 7.6.9 8.1-.5.8-1.9-1-2-.5-4zm-2.7 3.9c-1.3 0-2.8-.3-4.3-.9-1.7-.6-3.2-1.5-4.1-2.5-.8-.8-.9-1.3-.9-1.4 0-.1.5-.5 2-.5 1.3 0 2.8.3 4.3.9 3.7 1.4 5.2 3.4 5 3.9 0 .1-.5.5-2 .5zm-4.3-3.8c-.3 1 .5 2.1 1.9 2.7 1.1.4 2.2.3 2.7-.3-.8-.7-2.1-1.5-3.9-2.2-.2 0-.5-.1-.7-.2z" fill="#999"/></svg>