<?xml version="1.0" encoding="UTF-8" standalone="no"?>
<svg
   xmlns:dc="http://purl.org/dc/elements/1.1/"
   xmlns:cc="http://creativecommons.org/ns#"
   xmlns:rdf="http://www.w3.org/1999/02/22-rdf-syntax-ns#"
   xmlns:svg="http://www.w3.org/2000/svg"
   xmlns="http://www.w3.org/2000/svg"
   xmlns:sodipodi="http://sodipodi.sourceforge.net/DTD/sodipodi-0.dtd"
   xmlns:inkscape="http://www.inkscape.org/namespaces/inkscape"
   width="16"
   height="16"
   viewBox="0 0 16 16"
   id="svg2"
   version="1.1"
   inkscape:version="0.91 r13725"
   sodipodi:docname="cogs.svg">
  <metadata
     id="metadata10">
    <rdf:RDF>
      <cc:Work
         rdf:about="">
        <dc:format>image/svg+xml</dc:format>
        <dc:type
           rdf:resource="http://purl.org/dc/dcmitype/StillImage" />
        <dc:title></dc:title>
      </cc:Work>
    </rdf:RDF>
  </metadata>
  <defs
     id="defs8" />
  <sodipodi:namedview
     pagecolor="#ffffff"
     bordercolor="#666666"
     borderopacity="1"
     objecttolerance="10"
     gridtolerance="10"
     guidetolerance="10"
     inkscape:pageopacity="0"
     inkscape:pageshadow="2"
     inkscape:window-width="1920"
     inkscape:window-height="1028"
     id="namedview6"
     showgrid="false"
     inkscape:zoom="23.8396"
     inkscape:cx="15.521229"
     inkscape:cy="7.0535858"
     inkscape:window-x="-8"
     inkscape:window-y="-8"
     inkscape:window-maximized="1"
     inkscape:current-layer="svg2" />
  <path
     d="m 7.4271578,8.0052691 q 0,-0.9045162 -0.6230403,-1.5445041 -0.6230403,-0.6399879 -1.5036036,-0.6399879 -0.8805645,0 -1.5036048,0.6399879 -0.6230403,0.6399879 -0.6230403,1.5445041 0,0.9045162 0.6230403,1.5445041 0.6230403,0.6399878 1.5036048,0.6399878 0.8805633,0 1.5036036,-0.6399878 Q 7.4271578,8.9097853 7.4271578,8.0052691 Z M 13.80709,12.374252 q 0,-0.443725 -0.315673,-0.767984 -0.315674,-0.324262 -0.747648,-0.324262 -0.431975,0 -0.747649,0.324262 -0.315673,0.324259 -0.315673,0.767984 0,0.452258 0.311519,0.772252 0.311521,0.319994 0.751803,0.319994 0.440281,0 0.751802,-0.319994 0.311519,-0.319994 0.311519,-0.772252 z m 0,-8.737967 q 0,-0.4437241 -0.315673,-0.7679844 -0.315674,-0.3242602 -0.747648,-0.3242602 -0.431975,0 -0.747649,0.3242602 -0.315673,0.3242603 -0.315673,0.7679844 0,0.4522581 0.311519,0.7722521 0.311521,0.319994 0.751803,0.319994 0.440281,0 0.751802,-0.319994 0.311519,-0.319994 0.311519,-0.7722521 z m -3.189966,3.5924658 0,1.5786357 q 0,0.085326 -0.05815,0.166397 -0.05815,0.081064 -0.132914,0.089601 L 9.1384444,9.2681813 q -0.091374,0.2986597 -0.26583,0.6485197 0.2824441,0.409593 0.7476476,0.981316 0.058148,0.08534 0.058148,0.170663 0,0.102401 -0.058148,0.16213 -0.1910651,0.255995 -0.685344,0.763719 -0.4942788,0.507723 -0.6521156,0.507723 -0.091374,0 -0.174451,-0.05972 L 7.153022,11.674542 q -0.3073666,0.16213 -0.6396545,0.264528 -0.091374,0.921582 -0.1910651,1.322641 -0.058148,0.204797 -0.2492159,0.204797 l -1.5451401,0 q -0.091374,0 -0.1661452,-0.064 -0.074767,-0.064 -0.083071,-0.149331 L 4.0876654,11.947601 Q 3.80522,11.862262 3.4646251,11.683073 l -0.9802506,0.759451 q -0.058148,0.05972 -0.1661439,0.05972 -0.091374,0 -0.174451,-0.06826 -1.19623824,-1.134912 -1.19623824,-1.365307 0,-0.0768 0.0581482,-0.162131 0.083071,-0.119464 0.3405962,-0.452258 Q 1.6038087,10.1215 1.7367244,9.93377 1.545658,9.558309 1.4459719,9.2340483 L 0.18327709,9.029252 Q 0.1002064,9.0207823 0.04205439,8.9481887 -0.01609384,8.8756633 -0.01609384,8.7817916 l 0,-1.5786371 q 0,-0.085326 0.05814823,-0.1663971 0.05814823,-0.081064 0.13291438,-0.089601 L 1.462586,6.7423598 Q 1.55396,6.4436986 1.7284173,6.0938393 1.4459719,5.6842467 0.98076838,5.1125246 0.92262015,5.0186611 0.92262015,4.9418599 q 0,-0.1024015 0.0581482,-0.1706633 Q 1.1635264,4.5152022 1.6619595,4.0117447 2.1603912,3.5082886 2.3182281,3.5082886 q 0.091374,0 0.1744509,0.059738 L 3.4480084,4.3360132 Q 3.7304526,4.1824149 4.0876629,4.062951 4.1790369,3.1413683 4.278728,2.7488421 4.3368762,2.5440472 4.5279451,2.5440472 l 1.5451402,0 q 0.091374,0 0.1661439,0.064001 0.074767,0.064001 0.083071,0.1493306 l 0.1910651,1.305575 Q 6.7958107,4.1482928 7.1364056,4.327482 L 8.1166559,3.5680301 q 0.066452,-0.059738 0.1661439,-0.059738 0.091374,0 0.174451,0.068263 1.1962382,1.1349115 1.1962382,1.3653069 0,0.076802 -0.058148,0.1621308 Q 9.495651,5.240519 9.2464376,5.5647832 8.9972217,5.8890448 8.8726144,6.0767747 9.0636795,6.4863659 9.1550585,6.7764946 l 1.2626965,0.1962623 q 0.08307,0.017062 0.141221,0.089601 0.05815,0.072525 0.05815,0.1663972 z m 5.316611,4.5481802 0,1.194643 q 0,0.136527 -1.237773,0.264528 -0.09969,0.230396 -0.249216,0.443725 0.423667,0.964249 0.423667,1.177579 0,0.03413 -0.03323,0.05974 -1.013479,0.605854 -1.030094,0.605854 -0.06645,0 -0.382132,-0.401058 -0.315673,-0.401059 -0.431974,-0.580256 -0.166143,0.01706 -0.249215,0.01706 -0.08307,0 -0.249218,-0.01706 -0.116296,0.179197 -0.431973,0.580256 -0.315674,0.401058 -0.382132,0.401058 -0.01662,0 -1.030093,-0.605854 -0.03323,-0.0256 -0.03323,-0.05974 0,-0.21333 0.423669,-1.177579 -0.14953,-0.213329 -0.249218,-0.443725 -1.2377731,-0.128001 -1.2377731,-0.264528 l 0,-1.194643 q 0,-0.136527 1.2377731,-0.264529 0.107994,-0.247463 0.249218,-0.443725 -0.423669,-0.964248 -0.423669,-1.177577 0,-0.03414 0.03323,-0.05974 0.03323,-0.01706 0.290751,-0.170665 0.257525,-0.1535969 0.490126,-0.2901273 0.232602,-0.1365263 0.249216,-0.1365263 0.06645,0 0.382132,0.3967926 0.315673,0.396792 0.431973,0.575988 0.166146,-0.01706 0.249218,-0.01706 0.08307,0 0.249215,0.01706 0.423667,-0.605855 0.764263,-0.9557142 l 0.04984,-0.017062 q 0.03323,0 1.030095,0.5973223 0.03322,0.0256 0.03322,0.05974 0,0.2133289 -0.423666,1.1775769 0.141221,0.196263 0.249215,0.443726 1.237774,0.128002 1.237774,0.264529 z m 0,-8.7379684 0,1.1946449 q 0,0.1365263 -1.237773,0.2645283 -0.09969,0.2303953 -0.249216,0.4437241 0.423667,0.9642495 0.423667,1.1775784 0,0.034139 -0.03323,0.059739 -1.013479,0.605855 -1.030094,0.605855 -0.06645,0 -0.382132,-0.4010587 -0.315673,-0.4010587 -0.431974,-0.580256 -0.166143,0.017062 -0.249215,0.017062 -0.08307,0 -0.249218,-0.017062 -0.116296,0.1791973 -0.431973,0.580256 -0.315674,0.4010587 -0.382132,0.4010587 -0.01662,0 -1.030093,-0.605855 -0.03323,-0.0256 -0.03323,-0.059739 0,-0.2133289 0.423669,-1.1775784 Q 10.891269,4.7285311 10.791581,4.4981358 9.5538079,4.3701338 9.5538079,4.2336075 l 0,-1.1946449 q 0,-0.1365263 1.2377731,-0.2645282 0.107994,-0.2474605 0.249218,-0.4437241 -0.423669,-0.964248 -0.423669,-1.1775768 0,-0.034138 0.03323,-0.059739 0.03323,-0.017062 0.290751,-0.17066186 0.257525,-0.15359831 0.490126,-0.29012731 0.232602,-0.13652641 0.249216,-0.13652641 0.06645,0 0.382132,0.39679241 0.315673,0.39679237 0.431973,0.57598827 0.166146,-0.017062 0.249218,-0.017062 0.08307,0 0.249215,0.017062 0.423667,-0.60585487 0.764263,-0.95571417 l 0.04984,-0.017062 q 0.03323,0 1.030095,0.59732107 0.03322,0.0256 0.03322,0.059739 0,0.2133288 -0.423666,1.1775768 0.141221,0.1962636 0.249215,0.4437241 1.237774,0.1280019 1.237774,0.2645282 z"
     id="path4"
     inkscape:connector-curvature="0"
     style="fill:#999;fill-opacity:1" />
</svg>
