<!DOCTYPE svg PUBLIC "-//W3C//DTD SVG 1.1//EN" "http://www.w3.org/Graphics/SVG/1.1/DTD/svg11.dtd" [
	<!ENTITY ns_flows "http://ns.adobe.com/Flows/1.0/">
]><svg xmlns="http://www.w3.org/2000/svg" width="16" height="16" viewBox="0 0 16 16" preserveAspectRatio="xMinYMid meet" overflow="visible"><path d="M15.5 5.3c.8.4.4 1.3.4 1.3s-3.8 7.6-5.1 8.7c-1.7 1.3-5.5.6-6.8-.3C3.1 14.3.3 9.9.3 9.9s-.7-.9 0-1.5c.8-.7 1.5 0 1.5 0l2 2.2.4-1.1-.5-7.9s0-1.1 1-1.2C5.8.3 5.8 1.5 5.8 1.5L6.2 8h.5l.9-7s.2-1.1 1.2-1c1.1.1 1 1.2 1 1.2l-.9 7 .5.2L11 2.6s.3-1.2 1.4-.8c1 .4.7 1.4.7 1.4l-1.8 6 .5.3 2.4-3.7c-.1 0 .4-.9 1.3-.5" fill="#999"/></svg>