<!DOCTYPE svg PUBLIC "-//W3C//DTD SVG 1.1//EN" "http://www.w3.org/Graphics/SVG/1.1/DTD/svg11.dtd" [
	<!ENTITY ns_flows "http://ns.adobe.com/Flows/1.0/">
]><svg xmlns="http://www.w3.org/2000/svg" width="16" height="16" viewBox="0 0 16 16" preserveAspectRatio="xMinYMid meet" overflow="visible"><path d="M15 16h-14v-1h14v1zm-1-6h-4.8c-.1-.8-.2-1.6-.2-2.1 0-1.8 2-3.5 2-4.9 0-1.7-1.3-3-3-3s-3 1.3-3 3c0 1.4 1.9 3.2 2 4.9 0 .5 0 1.2-.1 2.1h-4.9c-1.1 0-2 .9-2 2v2h16v-2c0-1.1-.9-2-2-2z" fill="#999"/></svg>