<svg xmlns="http://www.w3.org/2000/svg" width="16" height="16" preserveAspectRatio="xMinYMid meet"><path d="M1 11.5V8h14v7H1v-3.5zM6 13c0-.55-.9-1-2-1s-2 .45-2 1 .9 1 2 1 2-.45 2-1zm3 0c0-.55-.45-1-1-1s-1 .45-1 1 .45 1 1 1 1-.45 1-1zm5 0c0-.55-.45-1-1-1s-1 .45-1 1 .45 1 1 1 1-.45 1-1zM4 10c0-.55-.45-1-1-1s-1 .45-1 1 .45 1 1 1 1-.45 1-1zm3 0c0-.55-.45-1-1-1s-1 .45-1 1 .45 1 1 1 1-.45 1-1zm3 0c0-.55-.45-1-1-1s-1 .45-1 1 .45 1 1 1 1-.45 1-1zm4 0c0-.55-.675-1-1.5-1s-1.5.45-1.5 1 .675 1 1.5 1 1.5-.45 1.5-1zM3.75 6.268c2.338-.21 6.163-.21 8.5 0 2.338.21.425.383-4.25.383S1.413 6.48 3.75 6.27zM1 3c0-1.81.667-2 7-2s7 .19 7 2-.667 2-7 2-7-.19-7-2zm3 0c0-.55-.45-1-1-1s-1 .45-1 1 .45 1 1 1 1-.45 1-1zm3 0c0-.55-.45-1-1-1s-1 .45-1 1 .45 1 1 1 1-.45 1-1zm3 0c0-.55-.45-1-1-1s-1 .45-1 1 .45 1 1 1 1-.45 1-1zm4 0c0-.55-.675-1-1.5-1S11 2.45 11 3s.675 1 1.5 1S14 3.55 14 3z" fill="#fff"/><path d="M0 11.5V7h16v9H0v-4.5zm15 0V8H1v7h14v-3.5zM2 13c0-.55.9-1 2-1s2 .45 2 1-.9 1-2 1-2-.45-2-1zm5 0c0-.55.45-1 1-1s1 .45 1 1-.45 1-1 1-1-.45-1-1zm5 0c0-.55.45-1 1-1s1 .45 1 1-.45 1-1 1-1-.45-1-1zM2 10c0-.55.45-1 1-1s1 .45 1 1-.45 1-1 1-1-.45-1-1zm3 0c0-.55.45-1 1-1s1 .45 1 1-.45 1-1 1-1-.45-1-1zm3 0c0-.55.45-1 1-1s1 .45 1 1-.45 1-1 1-1-.45-1-1zm3 0c0-.55.675-1 1.5-1s1.5.45 1.5 1-.675 1-1.5 1-1.5-.45-1.5-1zM0 3V0h16v6H0V3zm15 0c0-1.81-.667-2-7-2s-7 .19-7 2 .667 2 7 2 7-.19 7-2zM2 3c0-.55.45-1 1-1s1 .45 1 1-.45 1-1 1-1-.45-1-1zm3 0c0-.55.45-1 1-1s1 .45 1 1-.45 1-1 1-1-.45-1-1zm3 0c0-.55.45-1 1-1s1 .45 1 1-.45 1-1 1-1-.45-1-1zm3 0c0-.55.675-1 1.5-1s1.5.45 1.5 1-.675 1-1.5 1S11 3.55 11 3z" fill="#999"/></svg>