<!DOCTYPE svg PUBLIC "-//W3C//DTD SVG 1.1//EN" "http://www.w3.org/Graphics/SVG/1.1/DTD/svg11.dtd" [
	<!ENTITY ns_flows "http://ns.adobe.com/Flows/1.0/">
]><svg xmlns="http://www.w3.org/2000/svg" width="16" height="16" viewBox="0 0 16 16" preserveAspectRatio="xMinYMid meet" overflow="visible"><path d="M4 12c-2 0-4 1.2-4 1.2v-12.1s2-1.1 4-1.1 3.1.5 4 1c.9-.5 2-1 4-1s4 1.1 4 1.1v9.6c-.3-.3-.6-.5-1-.6v-8.3s-2.1-.8-3.6-.8c-1.3 0-2.6.7-3.4 1.1-.8-.4-2.1-1.1-3.4-1.1-1.5 0-3.6.8-3.6.8v9.9s2-.8 3.6-.8c0 0 .1 0 .1 0-.3.3-.5.6-.6 1 0 .1 0 .1-.1.1zm1.9-1.8s.1 0 0 0l.1-3.6 2.6-2.6h5.4v-1.5s-1.2-.5-2.6-.5c-1.6 0-3.4 1.3-3.4 1.3s-1.8-1.3-3.4-1.3c-1.4 0-2.6.5-2.6.5v7.9s1.2-.4 2.6-.4c.5 0 .9.1 1.3.2zm10.1 5.8v-3c0-1.1-.9-2-2-2h-7c-1.1 0-2 .9-2 2v3h11zm-2-1h-7v-1h7v1zm-5-10l-2 2v3h7v-5h-5zm4 4h-5v-1h2v-2h3v3z" fill="#999"/></svg>