<!DOCTYPE svg PUBLIC "-//W3C//DTD SVG 1.1//EN" "http://www.w3.org/Graphics/SVG/1.1/DTD/svg11.dtd" [
	<!ENTITY ns_flows "http://ns.adobe.com/Flows/1.0/">
]><svg xmlns="http://www.w3.org/2000/svg" width="16" height="16" viewBox="0 -3.9 16 16" preserveAspectRatio="xMinYMid meet" overflow="visible" enable-background="new 0 -3.9 16 16"><path d="M15 6.2c.3 0 .5.1.7.3s.3.4.3.6-.1.5-.3.7-.4.3-.7.3-.5-.1-.7-.3-.3-.4-.3-.7.1-.5.3-.7.5-.2.7-.2zm-4.7-6.2v3c.5-.5 1-.7 1.5-.7.4 0 .7.1 1.1.3s.6.5.8.9.3.9.3 1.4c0 .6-.1 1.1-.4 1.6s-.6.9-1 1.1-.9.4-1.4.4c-.3 0-.6 0-.8-.1s-.4-.2-.6-.4l-1 .6h-.1v-7c0-.3 0-.5 0-.6 0-.1-.1-.2-.2-.2s-.3-.1-.5-.1v-.2h2.3zm0 3.5v2.5c0 .5 0 .8 0 .9 0 .2.1.4.3.6s.3.2.6.2c.2 0 .4-.1.5-.2s.3-.3.4-.7.1-.9.1-1.8c0-.8-.1-1.4-.3-1.7-.2-.2-.4-.3-.7-.3-.3 0-.6.2-.9.5zm-5.4 2.3h-2.8l-.3.8c-.2.3-.2.5-.2.7 0 .2.1.4.3.5.1 0 .3.1.7.1v.2h-2.6v-.2c.3 0 .5-.2.7-.4s.4-.6.7-1.2l2.8-6.3h.1l2.9 6.5c.3.6.5 1 .7 1.2.1.1.3.2.5.2v.2h-3.8v-.2h.2c.3 0 .5 0 .7-.1.1-.1.1-.2.1-.3 0-.1 0-.1 0-.2 0 0-.1-.2-.2-.4l-.5-1.1zm-.2-.4l-1.2-2.7-1.2 2.7h2.4z" fill="#999"/></svg>