<!DOCTYPE svg PUBLIC "-//W3C//DTD SVG 1.1//EN" "http://www.w3.org/Graphics/SVG/1.1/DTD/svg11.dtd" [
	<!ENTITY ns_flows "http://ns.adobe.com/Flows/1.0/">
]><svg xmlns="http://www.w3.org/2000/svg" width="16" height="16" viewBox="-1 -1 16 16" preserveAspectRatio="xMinYMid meet" overflow="visible" enable-background="new -1 -1 16 16"><path d="M0 14.6c.9-.1 1.5-.2 1.8-.4s.4-.8.4-1.6v-10.1c0-.8-.1-1.4-.4-1.6-.3-.3-.9-.4-1.8-.5v-.4h6.3c1.8 0 3.3.3 4.3.9 1.1.6 1.6 1.6 1.6 3 0 1.1-.4 1.9-1.1 2.4-.4.3-1.1.6-1.9.8 1 .3 1.9.7 2.7 1.3.8.6 1.1 1.4 1.1 2.4 0 1.8-.8 3-2.5 3.7-.8.3-1.9.5-3.1.5h-7.4v-.4zm8.5-8.2c1-.5 1.5-1.3 1.5-2.4 0-1.4-.6-2.3-1.7-2.7-.6-.3-1.5-.5-2.8-.5-.5 0-.8.1-.9.2-.1 0-.1.3-.1.6v5.1h2.2c.7 0 1.3-.1 1.8-.3zm.8 7.1c.8-.5 1.2-1.3 1.2-2.6s-.5-2.1-1.4-2.6c-1-.5-2.1-.7-3.5-.7-.3 0-.6 0-.7 0s-.2 0-.4 0v5.6c0 .4.1.6.3.8.2.1.7.2 1.5.2 1.2 0 2.2-.2 3-.7z" fill="#999"/></svg>