<!DOCTYPE svg PUBLIC "-//W3C//DTD SVG 1.1//EN" "http://www.w3.org/Graphics/SVG/1.1/DTD/svg11.dtd" [
	<!ENTITY ns_flows "http://ns.adobe.com/Flows/1.0/">
]><svg xmlns="http://www.w3.org/2000/svg" width="16" height="16" viewBox="0 -5.5 16 16" preserveAspectRatio="xMinYMid meet" overflow="visible" enable-background="new 0 -5.5 16 16"><path d="M5.2 2c.5 0 .9.2 1.2.5.4.4.6.8.6 1.3s-.2.8-.5 1.2c-.3.3-.8.5-1.2.5s-.9-.2-1.3-.5-.5-.8-.5-1.2v-.3c0-1 .3-1.8 1-2.5s1.5-1 2.5-1v1c-.7 0-1.3.2-1.8.7-.1.1-.1.2-.2.3.1 0 .2 0 .2 0zm-3.4 0c.4 0 .9.2 1.2.5.3.3.5.8.5 1.2s-.2.9-.5 1.3c-.3.3-.8.5-1.2.5s-.9-.2-1.3-.5-.5-.8-.5-1.2v-.3c0-1 .3-1.8 1-2.5s1.5-1 2.5-1v1c-.7 0-1.3.2-1.8.7-.1.1-.1.2-.2.3.1 0 .2 0 .3 0zm9 1.5c-.5 0-.9-.2-1.2-.5-.4-.4-.6-.8-.6-1.3s.2-.9.5-1.2c.3-.3.8-.5 1.2-.5s.9.2 1.2.5.5.8.5 1.2v.3c0 1-.3 1.8-1 2.5s-1.5 1-2.5 1v-1c.7 0 1.3-.2 1.8-.7.1-.1.2-.2.2-.3 0 0-.1 0-.1 0zm3.4 0c-.5 0-.9-.2-1.2-.5-.3-.3-.5-.8-.5-1.2s.2-.9.5-1.2c.3-.4.8-.6 1.2-.6s.9.2 1.2.5.6.8.6 1.2v.3c0 1-.3 1.8-1 2.5s-1.5 1-2.5 1v-1c.7 0 1.3-.2 1.8-.7.1-.1.2-.2.2-.3-.1 0-.2 0-.3 0z" fill="#999"/></svg>