<!DOCTYPE svg PUBLIC "-//W3C//DTD SVG 1.1//EN" "http://www.w3.org/Graphics/SVG/1.1/DTD/svg11.dtd" [
	<!ENTITY ns_flows "http://ns.adobe.com/Flows/1.0/">
]><svg xmlns="http://www.w3.org/2000/svg" width="16" height="16" viewBox="-0.3 0 16 16" preserveAspectRatio="xMinYMid meet" overflow="visible" enable-background="new -0.3 0 16 16"><path d="M7 3.7l.3-.3c.6-.6 1.7-.6 2.3 0l.1.1 3.1-3.1c.6-.6 1.7-.6 2.3 0l.2.2c.6.6.6 1.7 0 2.3l-3.1 3.1c.6.6.6 1.7 0 2.3l-.3.3-4.9-4.9zm1.1 11.9c-1.9 1-8.7-6-8.1-9.3.1-.7 2.8.8 6.1-2l5.4 5.4c-.5 1.5-1.9 5.1-3.4 5.9zm2.3-5.7l-4.4-4.3c-2.1 1.5-4 1.5-5 1.5.2 1.4 1.5 3.6 3.4 5.4 1.7 1.7 2.9 2.2 3.2 2.2.7-.4 1.8-2.2 2.8-4.8z" fill="#999"/></svg>