<!DOCTYPE svg PUBLIC "-//W3C//DTD SVG 1.1//EN" "http://www.w3.org/Graphics/SVG/1.1/DTD/svg11.dtd" [
	<!ENTITY ns_flows "http://ns.adobe.com/Flows/1.0/">
]><svg xmlns="http://www.w3.org/2000/svg" width="16" height="16" viewBox="0 -1 16 16" preserveAspectRatio="xMinYMid meet" overflow="visible" enable-background="new 0 -1 16 16"><path d="M15 7.1v1.9h-4v-2.2l-1 1v1.2h-4v-3h.8l-.3-.3.7-.7h-1.2v-3h1.1l-.6-.6 1.4-1.4h-7.9v14h16v-7.9l-1 1zm-10 5.9h-4v-3h4v3zm0-4h-4v-3h4v3zm0-4h-4v-3h4v3zm5 8h-4v-3h4v3zm5 0h-4v-3h4v3zm1-7.7l-1-1v-1.5l1-1v3.5zm-3.8-5.3l-.7.7-.8-.7h1.5zm2.8 0h1v1l-1-1zm0 1.4l-2.1 2.1 2.1 2.2-1.4 1.4-2.1-2.1-2.2 2.1-1.4-1.4 2.1-2.1-2.1-2.2 1.4-1.4 2.1 2.1 2.2-2.1 1.4 1.4z" fill="#999"/></svg>