<!DOCTYPE svg PUBLIC "-//W3C//DTD SVG 1.1//EN" "http://www.w3.org/Graphics/SVG/1.1/DTD/svg11.dtd" [
	<!ENTITY ns_flows "http://ns.adobe.com/Flows/1.0/">
]><svg xmlns="http://www.w3.org/2000/svg" width="16" height="16" viewBox="0 -1 16 16" preserveAspectRatio="xMinYMid meet" overflow="visible" enable-background="new 0 -1 16 16"><path d="M14.9 14.2c.2.2.6.3 1.1.4v.4h-5.7v-.4c.7-.1 1.1-.1 1.3-.2.2-.1.3-.3.3-.6 0-.1 0-.3-.1-.6s-.2-.6-.3-.9l-.6-1.3h2.4l.7 1.6c.4.9.7 1.4.9 1.6zm-11.4-.6c0-.2.1-.4.2-.8.1-.2.3-.8.7-1.8h-1c-.7 1.6-1.2 2.6-1.4 2.9-.3.4-.7.6-1.3.6v.5h4.3v-.4c-.5 0-.9-.1-1.1-.2-.3-.2-.4-.4-.4-.8zm2.1-5.6l2-4.9 2 4.9h2.4l-3.6-8h-.4l-3.4 8h1zm10.4 1h-16v1h16v-1z" fill="#999"/></svg>