<!DOCTYPE svg PUBLIC "-//W3C//DTD SVG 1.1//EN" "http://www.w3.org/Graphics/SVG/1.1/DTD/svg11.dtd" [
	<!ENTITY ns_flows "http://ns.adobe.com/Flows/1.0/">
]><svg xmlns="http://www.w3.org/2000/svg" width="16" height="16" viewBox="0 0.1 16 16" preserveAspectRatio="xMinYMid meet" overflow="visible" enable-background="new 0 0.1 16 16"><path d="M4.8 7.9h-.2v.2h3.1v-.7c-.2-.2-.3-.5-.5-.9l-2.9-6.5h-.1l-2.8 6.3c-.3.6-.5 1-.7 1.2s-.4.3-.7.4v.2h2.6v-.2c-.4 0-.6-.1-.7-.1-.2-.2-.3-.3-.3-.5s.1-.4.2-.6l.3-.8h2.8l.4 1c.1.3.2.4.2.4 0 .1 0 .1 0 .2s0 .2-.1.3c-.1 0-.3.1-.6.1zm-2.5-2.5l1.2-2.7 1.2 2.7h-2.4zm11.5 6.5c.8.2 1.3.4 1.6.6.4.4.7.8.7 1.4 0 .6-.2 1.1-.7 1.5-.6.5-1.4.7-2.6.7h-4v-.2c.4 0 .6 0 .7-.1s.2-.2.3-.3.1-.4.1-.8v-5.1c0-.4 0-.7-.1-.8s-.3-.3-.4-.3-.4-.1-.7-.1v-.2h3.8c.9 0 1.6.1 1.9.2s.7.4.9.7.3.7.3 1c0 .4-.1.7-.4 1s-.7.6-1.4.8zm-2.2.3v2.8c0 .2.1.4.2.5s.3.2.5.2c.3 0 .6-.1.9-.2s.5-.3.6-.6.2-.6.2-.9c0-.4-.1-.7-.3-1s-.4-.5-.7-.6-.8-.2-1.4-.2zm0-.5c.6 0 1-.1 1.2-.2s.5-.3.6-.5.2-.5.2-.9-.1-.6-.2-.9-.3-.4-.6-.5-.7-.2-1.2-.2v3.2zm-6.6 4.4v-2.5c-.4.3-.9.5-1.5.5-1.4 0-2.5-1.1-2.5-2.5 0-.6.2-1.1.5-1.5h.5v2h.1c.1.4.5.8.9.9v.1h2v-2l3 2.5-3 2.5z" fill="#999"/></svg>