<!DOCTYPE svg PUBLIC "-//W3C//DTD SVG 1.1//EN" "http://www.w3.org/Graphics/SVG/1.1/DTD/svg11.dtd" [
	<!ENTITY ns_flows "http://ns.adobe.com/Flows/1.0/">
]><svg xmlns="http://www.w3.org/2000/svg" width="16" height="16" viewBox="0 0 16 16" preserveAspectRatio="xMinYMid meet" overflow="visible"><path d="M5 6h2v2h-2v-2zm3 0h2v2h-2v-2zm3 0h2v2h-2v-2zm-9 6h2v2h-2v-2zm3 0h2v2h-2v-2zm3 0h2v2h-2v-2zm-3-3h2v2h-2v-2zm3 0h2v2h-2v-2zm3 0h2v2h-2v-2zm-9 0h2v2h-2v-2zm11-9v1h-2v-1h-7v1h-2v-1h-2v16h15v-16h-2zm1 15h-13v-11h13v11z" fill="#999"/></svg>