<!DOCTYPE svg PUBLIC "-//W3C//DTD SVG 1.1//EN" "http://www.w3.org/Graphics/SVG/1.1/DTD/svg11.dtd" [
	<!ENTITY ns_flows "http://ns.adobe.com/Flows/1.0/">
]><svg xmlns="http://www.w3.org/2000/svg" width="16" height="16" viewBox="0 0 16 16" preserveAspectRatio="xMinYMid meet" overflow="visible"><path d="M0 0v16h16v-16h-16zm15 15h-14v-14h14v14zm-4-6.5l-2 1.5-4-5-3 8h12l-3-4.5zm1.5-2.5c.4 0 .8-.1 1.1-.4.3-.3.4-.7.4-1.1 0-.4-.1-.8-.4-1.1-.3-.3-.7-.4-1.1-.4s-.8.1-1.1.4c-.3.3-.4.7-.4 1.1 0 .4.1.8.4 1.1.3.3.7.4 1.1.4z" fill="#999"/></svg>