<!DOCTYPE svg PUBLIC "-//W3C//DTD SVG 1.1//EN" "http://www.w3.org/Graphics/SVG/1.1/DTD/svg11.dtd" [
	<!ENTITY ns_flows "http://ns.adobe.com/Flows/1.0/">
]><svg xmlns="http://www.w3.org/2000/svg" width="16" height="16" viewBox="-4 -1 16 16" preserveAspectRatio="xMinYMid meet" overflow="visible" enable-background="new -4 -1 16 16"><path d="M0 14.6c.5 0 .9-.1 1.1-.3.3-.2.6-.7.8-1.4l2.8-10.1c.1-.4.2-.7.2-.9.1-.2.1-.3.1-.5 0-.4-.1-.6-.4-.8-.2-.1-.6-.2-1.3-.2v-.4h5.7v.4c-.6.1-1 .2-1.2.4-.2.1-.4.6-.6 1.3l-2.9 10.1c-.1.4-.2.7-.2.9s-.1.4-.1.5c0 .4.1.6.4.8s.7.2 1.2.2v.4h-5.6v-.4z" fill="#999"/></svg>