<!DOCTYPE svg PUBLIC "-//W3C//DTD SVG 1.1//EN" "http://www.w3.org/Graphics/SVG/1.1/DTD/svg11.dtd" [
	<!ENTITY ns_flows "http://ns.adobe.com/Flows/1.0/">
]><svg xmlns="http://www.w3.org/2000/svg" width="16" height="16" viewBox="0 0 16 16" preserveAspectRatio="xMinYMid meet" overflow="visible"><path d="M13.1 10.6l2.9 1.4-8 4-8-4 2.9-1.4 1.1.5-1.8.9 5.8 2.9 5.8-2.9-1.8-.9 1.1-.5zm-1.1-3.5l1.8.9-5.8 2.9-5.8-2.9 1.8-.9-1.1-.5-2.9 1.4 8 4 8-4-2.9-1.4-1.1.5zm4-3.1l-8 4-8-4 8-4 8 4zm-8 2.9l5.8-2.9-5.8-2.9-5.8 2.9 5.8 2.9z" fill="#999"/></svg>