<!DOCTYPE svg PUBLIC "-//W3C//DTD SVG 1.1//EN" "http://www.w3.org/Graphics/SVG/1.1/DTD/svg11.dtd" [
	<!ENTITY ns_flows "http://ns.adobe.com/Flows/1.0/">
]><svg xmlns="http://www.w3.org/2000/svg" width="16" height="16" viewBox="0 0 16 16" preserveAspectRatio="xMinYMid meet" overflow="visible"><path d="M12 5v-2.5c0-.3-.2-.5-.5-.5h-3.5v-1c0-.6-.5-1-1-1h-2c-.5 0-1 .4-1 1v1h-3.5c-.3 0-.5.2-.5.5v10c0 .3.2.5.5.5h4.5v3h7l3-3v-8h-3zm-7-4h2v1h-2v-1zm-3 2h8v1h-8v-1zm10 11.6v-1.6h1.6l-1.6 1.6zm2-2.6h-3v3h-5v-9h8v6z" fill="#999"/></svg>