<!DOCTYPE svg PUBLIC "-//W3C//DTD SVG 1.1//EN" "http://www.w3.org/Graphics/SVG/1.1/DTD/svg11.dtd" [
	<!ENTITY ns_flows "http://ns.adobe.com/Flows/1.0/">
]><svg xmlns="http://www.w3.org/2000/svg" width="16" height="16" viewBox="0 0 16 16" preserveAspectRatio="xMinYMid meet" overflow="visible"><path d="M5 10l.6-.6.8.1.1.9-.5.6c-.1.1-.3.2-.5.2s-.4-.1-.5-.2c-.1-.1-.2-.3-.2-.5s.1-.4.2-.5zm5.5-5.2c-.2 0-.4.1-.5.2l-.6.6.1.8.9.1.6-.5c.1-.1.2-.3.2-.5s-.1-.4-.2-.5c-.1-.1-.3-.2-.5-.2zm4.8-2.6l-1.5-1.5c-.5-.5-1.1-.7-1.8-.7s-1.3.2-1.7.7l-1.5 1.5.3 1.7 2.2-2.2c.2-.2.5-.3.7-.3s.5.1.7.3l1.5 1.5c.2.2.3.5.3.7s-.1.5-.3.7l-2.2 2.2 1.7.3 1.5-1.5c.6-.4.8-.9.8-1.6s-.2-1.3-.7-1.8zm-8.4 9.9l-2.2 2.2c-.2.2-.5.3-.7.3s-.5-.1-.7-.3l-1.5-1.5c-.2-.2-.3-.5-.3-.7 0-.3.1-.5.3-.7l2.2-2.2-1.8-.4-1.5 1.5c-.5.5-.7 1-.7 1.7s.2 1.3.7 1.7l1.5 1.5c.5.6 1.1.8 1.8.8s1.3-.2 1.7-.7l1.5-1.5-.3-1.7zm7.1-3.8l-5.4-1-.9-5.3-1.5.2.9 4.9-4.9-.9-.2 1.5 5.4 1 1 5.4 1.5-.3-1-4.9 4.9.9.2-1.5z" fill="#999"/></svg>