<!DOCTYPE svg PUBLIC "-//W3C//DTD SVG 1.1//EN" "http://www.w3.org/Graphics/SVG/1.1/DTD/svg11.dtd" [
	<!ENTITY ns_flows "http://ns.adobe.com/Flows/1.0/">
]><svg xmlns="http://www.w3.org/2000/svg" width="16" height="16" viewBox="0 -1 16 16" preserveAspectRatio="xMinYMid meet" overflow="visible" enable-background="new 0 -1 16 16"><path d="M15.7 3.3c.2.2.3.4.3.7v5c0 .3-.1.5-.3.7-.2.2-.4.3-.7.3h-3v4h-8v-4h-3c-.3 0-.5-.1-.7-.3-.2-.2-.3-.4-.3-.7v-5c0-.3.1-.5.3-.7.2-.2.4-.3.7-.3h14c.3 0 .5.1.7.3zm-11.7-1.3h8v-2h-8v2zm7 6h-6v5h6v-5zm3.5-4.2c-.2 0-.4.1-.5.2-.1.1-.2.3-.2.5s.1.4.2.5c.1.1.3.2.5.2s.4 0 .5-.2c.1-.1.2-.3.2-.5s-.1-.4-.2-.5c-.1-.2-.3-.2-.5-.2z" fill="#999"/></svg>