<!DOCTYPE svg PUBLIC "-//W3C//DTD SVG 1.1//EN" "http://www.w3.org/Graphics/SVG/1.1/DTD/svg11.dtd" [
	<!ENTITY ns_flows "http://ns.adobe.com/Flows/1.0/">
]><svg xmlns="http://www.w3.org/2000/svg" width="16" height="16" viewBox="-1.2 0 16 16" preserveAspectRatio="xMinYMid meet" overflow="visible" enable-background="new -1.2 0 16 16"><path d="M7.5 3.9v-3.9l6 6-6 6v-4c-1.3 0-2.4.2-3.3.5s-1.6.8-2 1.3c-.4.6-.6 1.2-.7 1.9-.1.7 0 1.4.2 2.2.2.7.5 1.4.9 2.1-.7-.8-1.3-1.6-1.7-2.5-.4-.9-.7-1.8-.8-2.7-.1-.9 0-1.8.2-2.6.2-1 .7-1.7 1.2-2.3.6-.6 1.4-1.1 2.4-1.5 1.1-.4 2.3-.5 3.6-.5z" fill="#999"/></svg>