<!DOCTYPE svg PUBLIC "-//W3C//DTD SVG 1.1//EN" "http://www.w3.org/Graphics/SVG/1.1/DTD/svg11.dtd" [
	<!ENTITY ns_flows "http://ns.adobe.com/Flows/1.0/">
]><svg xmlns="http://www.w3.org/2000/svg" width="16" height="16" viewBox="0 0 16 16" preserveAspectRatio="xMinYMid meet" overflow="visible"><path d="M0 6h3v1h-3v-1zm7.4 4.6c.1.1.1.3.1.4 0 .3-.1.5-.3.8l-2.5 2.5c-.2.2-.5.3-.7.3s-.5-.1-.7-.3l-1.5-1.5c-.2-.2-.3-.5-.3-.7 0-.3.1-.5.3-.7l2.5-2.5c.2-.4.4-.5.7-.5.2 0 .3 0 .4.1l1-1c-.4-.3-.9-.5-1.4-.5-.7 0-1.3.3-1.8.8l-2.5 2.5c-.5.5-.7 1-.7 1.7s.2 1.3.7 1.7l1.5 1.5c.5.6 1.1.8 1.8.8s1.3-.2 1.7-.7l2.5-2.5c.4-.4.7-1 .7-1.6 0-.6-.1-1.2-.5-1.6l-1 1zm-3.7-6.3l-3-3 .7-.7 3 3-.7.7zm2.3-4.3h1v3h-1v-3zm9.3 2.2l-1.5-1.5c-.5-.5-1.1-.7-1.8-.7s-1.3.2-1.7.7l-2.5 2.5c-.5.5-.7 1-.8 1.6s.2 1.2.5 1.7l1-1c0-.2-.1-.3-.1-.5 0-.3.1-.5.3-.8l2.5-2.5c.2-.2.5-.3.7-.3s.5.1.7.3l1.5 1.5c.2.2.3.5.3.7s-.1.5-.3.7l-2.5 2.5c-.2.2-.5.3-.8.3-.2 0-.3 0-.4-.1l-1 1c.6.5 1.1.7 1.6.7.7 0 1.3-.2 1.8-.7l2.5-2.5c.5-.6.7-1.1.7-1.8s-.2-1.3-.7-1.8zm-6.3 10.8h1v3h-1v-3zm3.3-1.3l3 3-.7.7-3-3 .7-.7zm.7-2.7h3v1h-3v-1z" fill="#999"/></svg>