<!DOCTYPE svg PUBLIC "-//W3C//DTD SVG 1.1//EN" "http://www.w3.org/Graphics/SVG/1.1/DTD/svg11.dtd" [
	<!ENTITY ns_flows "http://ns.adobe.com/Flows/1.0/">
]><svg xmlns="http://www.w3.org/2000/svg" width="16" height="16" viewBox="0 -1.2 16 16" preserveAspectRatio="xMinYMid meet" overflow="visible" enable-background="new 0 -1.2 16 16"><path d="M9.2 0c1.9 0 3.5.7 4.8 2 1.3 1.3 2 2.9 2 4.8s-.7 3.5-2 4.8c-1.3 1.3-2.9 2-4.8 2v-1.5c1.5 0 2.7-.5 3.8-1.6 1-1 1.6-2.3 1.6-3.8-.1-1.4-.6-2.6-1.6-3.7s-2.3-1.6-3.8-1.6c-1.5.1-2.7.6-3.7 1.6-.8.8-1.3 1.7-1.5 2.8h2.8l-3.4 3.9-3.4-3.9h2.5c.2-1.7 1-3 2.3-4.2 1.2-1 2.7-1.6 4.4-1.6zm2.9 5.8v1.9h-3.9v-4.8h1.9v2.9h2z" fill="#999"/></svg>