<!DOCTYPE svg PUBLIC "-//W3C//DTD SVG 1.1//EN" "http://www.w3.org/Graphics/SVG/1.1/DTD/svg11.dtd" [
	<!ENTITY ns_flows "http://ns.adobe.com/Flows/1.0/">
]><svg xmlns="http://www.w3.org/2000/svg" width="16" height="16" viewBox="0 0 16 16" preserveAspectRatio="xMinYMid meet" overflow="visible"><path d="M15.7 5.3c.2.2.3.5.3.8v8.8c0 .3-.1.6-.3.8s-.5.3-.8.3h-4.7c-.3 0-.6-.1-.8-.3-.3-.2-.4-.5-.4-.8v-5.9h-2v5.9c0 .3-.1.6-.3.8-.2.2-.5.3-.8.3h-4.8c-.3 0-.6-.1-.8-.3s-.3-.5-.3-.8v-8.8c0-.3.1-.6.3-.8.2-.2.5-.3.8-.3h.9v-4h4v4h4v-4h4v4h.9c.3 0 .6.1.8.3zm-14.7-4.3h6v-1h-6v1zm4.8 13.9c.1-.1.2-.3.2-.4 0-.1-.1-.3-.2-.4-.1-.1-.2-.1-.4-.1h-3.8c-.1 0-.3 0-.4.1-.1.1-.2.3-.2.4 0 .1.1.3.2.4.1.1.2.1.4.1h3.9c.1 0 .2 0 .3-.1zm3.1-7c.1-.1.1-.3.1-.4s0-.3-.1-.4c-.1-.1-.3-.1-.4-.1h-1c-.1 0-.3 0-.4.1-.1.1-.1.3-.1.4s0 .3.1.4c.1.1.3.1.4.1h1c.1 0 .3 0 .4-.1zm.1-6.9h6v-1h-6v1zm5.8 13.9c.1-.1.2-.2.2-.4 0-.1-.1-.3-.2-.4-.1-.1-.2-.1-.4-.1h-3.9c-.1 0-.3 0-.4.1-.1.1-.2.2-.2.4 0 .1.1.3.2.4.1.1.2.1.4.1h3.9c.2 0 .3 0 .4-.1z" fill="#999"/></svg>