<!DOCTYPE svg PUBLIC "-//W3C//DTD SVG 1.1//EN" "http://www.w3.org/Graphics/SVG/1.1/DTD/svg11.dtd" [
	<!ENTITY ns_flows "http://ns.adobe.com/Flows/1.0/">
]><svg xmlns="http://www.w3.org/2000/svg" width="16" height="16" viewBox="0 0 16 16" preserveAspectRatio="xMinYMid meet" overflow="visible"><path d="M16 16h-1l1-1v1zm0-2.4v-1.4l-3.8 3.8h1.4l2.4-2.4zm0-2.8v-1.4l-2 2 .5.8-.5.6c-.5.6-1.1 1-1.8 1.3-.4.1-.7.2-1.1.2l-1.7 1.7h1.4l5.2-5.2zm0-4.2l-3 3v.6l.3.5 2.7-2.7v-1.4zm-3 .1v1.4l3-3v-1.4l-3 3zm-.4-2.4c.1.3.3.7.3 1.1l3.1-3.1v-1.4l-3.4 3.4zm-1.4-1.4s.1 0 .1.1c.3 0 .5.2.7.5l3.5-3.5h-1.4l-2.9 2.9zm-2.1-.7c.4.1.8.1 1.2.3l2.4-2.5h-1.4l-2.2 2.2zm-3 .1c.5-.1 1-.2 1.6-.2l2.1-2.1h-1.4l-2.3 2.3zm3.8 11.8c-.4-.1-.7-.3-.9-.5l-2.4 2.4h1.4l1.9-1.9zm-2.9.1c-.4.1-.7.1-1.1.1-.1 0-.3 0-.4 0l-1.8 1.7h1.4l1.9-1.8zm-2.6-.3c-.2-.1-.5-.2-.7-.4-.1 0-.1-.1-.2-.2l-2.6 2.7h1.4l2.1-2.1zm-1.5-1.3c-.2-.3-.3-.7-.3-1.1l-2.6 2.6v1.4l2.9-2.9zm-.2-2.6c.2-.7.7-1.4 1.7-2-.2-.2-.5-.3-.7-.5l-3.7 3.8v1.4l2.7-2.7zm.4-3.3c-.1-.3-.2-.6-.2-1 0-.1 0-.2 0-.2l-3 3v1.4l3.2-3.2zm3.9-6.7h-1.4l-5.6 5.6v1.4l7-7zm-2.8 0h-1.4l-2.8 2.8v1.4l4.2-4.2zm-4.2 1.4l1.4-1.4h-1.4v1.4zm4.9 7.4c.9-.6 2.3-1.1 4.3-1.7v-1.5c0-.6-.2-1.1-.4-1.4-.3-.3-.8-.4-1.4-.4-.4 0-.7 0-.9.2s-.4.3-.4.5c0 .1 0 .2 0 .2s.1.1.1.2l.2.1c.1.1.2.2.2.4.1.1.1.3.1.4 0 .4-.1.7-.4.9-.3.3-.6.4-.9.4-.4 0-.8-.1-1.1-.4-.3-.2-.4-.6-.4-1 0-.8.4-1.4 1.1-1.9.8-.5 1.7-.7 2.8-.7 1.2 0 2.2.2 3 .7.8.4 1.2 1.3 1.2 2.5v5.1c0 .2 0 .3.1.4s.2.2.3.2c.1 0 .2 0 .2 0 .1 0 .2-.1.3-.3l.3.4c-.4.5-.9.8-1.4 1-.3.1-.6.2-1 .2-.6 0-1.1-.2-1.4-.5-.2-.2-.3-.5-.4-.9-.6.6-1.2 1-2 1.2-.4.2-.9.2-1.3.2-.6 0-1.1-.2-1.6-.5s-.6-1-.6-1.8c0-.9.5-1.7 1.4-2.2zm3.7 2.7c.2-.1.4-.3.6-.6v-3.1c-.6.2-1.1.4-1.5.7-.8.5-1.1 1.1-1.1 1.9 0 .5.1.8.3 1s.4.4.7.4c.3 0 .7-.1 1-.3z" fill="#999"/></svg>