<!DOCTYPE svg PUBLIC "-//W3C//DTD SVG 1.1//EN" "http://www.w3.org/Graphics/SVG/1.1/DTD/svg11.dtd" [
	<!ENTITY ns_flows "http://ns.adobe.com/Flows/1.0/">
]><svg xmlns="http://www.w3.org/2000/svg" width="16" height="16" viewBox="-1 0 16 16" preserveAspectRatio="xMinYMid meet" overflow="visible" enable-background="new -1 0 16 16"><path d="M1 7h-1v-6c0-.3.1-.5.3-.7.2-.2.4-.3.7-.3h2c.3 0 .5.1.7.3.2.2.3.4.3.7v6h-1v-3h-2v3zm0-4h2v-2h-2v2zm10 5l-5.5 4.7-2.2-2.3-1.3 1.1 3.5 4.5 6.5-7-1-1zm-2.7-4.5c.5 0 .7.3.7 1v1.5c0 .3-.1.5-.3.7-.2.2-.4.3-.7.3h-3v-7h3c.3 0 .5.1.7.3.2.2.3.4.3.7v1.5c0 .7-.2 1-.7 1zm-.3-2.5h-2v2h2v-2zm0 3h-2v2h2v-2zm3-3v5h3v1h-3c-.3 0-.5-.1-.7-.3-.2-.2-.3-.4-.3-.7v-5c0-.3.1-.5.3-.7.2-.2.4-.3.7-.3h3v1h-3z" fill="#999"/></svg>