<!DOCTYPE svg PUBLIC "-//W3C//DTD SVG 1.1//EN" "http://www.w3.org/Graphics/SVG/1.1/DTD/svg11.dtd" [
	<!ENTITY ns_flows "http://ns.adobe.com/Flows/1.0/">
]><svg xmlns="http://www.w3.org/2000/svg" width="16" height="16" viewBox="0 0 16 16" preserveAspectRatio="xMinYMid meet" overflow="visible"><path d="M0 0v16h16v-16h-16zm15 15h-14v-14h14v14zm-10-3h2v1h-2v-1zm3 0h2v1h-2v-1zm4-3h2v4h-3v-1h2v-2h-1v-1zm-3 0h2v1h-2v-1zm-3 0h2v1h-2v-1zm-2 4h-2v-4h3v1h-2v2h1v1zm3-6h-2v-1h2v1zm1-1h2v1h-2v-1zm5-2h-1v-1h2v4h-3v-1h2v-2zm-2 0h-2v-1h2v1zm-3 0h-2v-1h2v1zm-4 3h-2v-4h3v1h-2v2h1v1z" fill="#999"/></svg>