<!DOCTYPE svg PUBLIC "-//W3C//DTD SVG 1.1//EN" "http://www.w3.org/Graphics/SVG/1.1/DTD/svg11.dtd" [
	<!ENTITY ns_flows "http://ns.adobe.com/Flows/1.0/">
]><svg xmlns="http://www.w3.org/2000/svg" width="16" height="16" viewBox="0 0 16 16" preserveAspectRatio="xMinYMid meet" overflow="visible"><path d="M15 11v4h-4v-1h3v-3h1zm-5 4v-1h-2v-3h-1v3h-2v1h5zm-6-1h-3v-3h-1v4h4v-1zm11-4v-5h-1v2h-3v1h3v2h1zm-8-2v2h1v-2h2v-1h-2v-2h-1v2h-2v1h2zm-6 0h3v-1h-3v-2h-1v5h1v-2zm13-7v3h1v-4h-4v1h3zm-7 0v3h1v-3h2v-1h-5v1h2zm-6 0h3v-1h-4v4h1v-3z" fill="#999"/></svg>