<!DOCTYPE svg PUBLIC "-//W3C//DTD SVG 1.1//EN" "http://www.w3.org/Graphics/SVG/1.1/DTD/svg11.dtd" [
	<!ENTITY ns_flows "http://ns.adobe.com/Flows/1.0/">
]><svg xmlns="http://www.w3.org/2000/svg" width="16" height="16" viewBox="-1 0 16 16" preserveAspectRatio="xMinYMid meet" overflow="visible" enable-background="new -1 0 16 16"><path d="M13.1 3.1l-2.2-2.2c-.5-.5-1.5-.9-2.1-.9h-7.6c-.6 0-1.2.6-1.2 1.2v13.5c0 .7.6 1.3 1.2 1.3h11.5c.7 0 1.2-.6 1.2-1.2v-9.6c.1-.6-.3-1.6-.8-2.1zm-3.1-1.7c.1 0 .1.1.2.1l2.2 2.2s.1.1.1.2h-2.5v-2.5zm3 13.3c0 .1-.1.3-.2.3h-11.6c-.1 0-.2-.1-.2-.3v-13.5c0-.1.1-.2.2-.2h7.5c.1 0 .2 0 .3 0v4h4c0 .1 0 .2 0 .2v9.5zm-2.8-8l2.8 2.8-2.8 2.8-.7-.7 2.1-2.1-2.1-2.1.7-.7zm-5.7.7l-2.1 2.1 2.1 2.1-.7.7-2.8-2.8 2.8-2.8.7.7zm.1 6.4c.3 0 .5-.1.6-.2.1-.1.1-.3.1-.5v-4.7c0-.2 0-.4-.1-.5s-.1-.1-.3-.1c0 0-.1 0-.1 0s-.1 0-.1 0v-.1l.5-.2s.3-.1 1-.3 0 0 0 .1v.7c.2-.2.4-.4.6-.5.2-.2.5-.3.9-.3s.8.2 1.2.6c.3.4.5.9.5 1.6 0 .7-.2 1.2-.6 1.8-.4.5-.9.8-1.5.8-.2 0-.3 0-.5-.1s-.4-.2-.6-.4v1.5c0 .3.1.5.2.6s.3.1.7.2v.2h-2.5v-.2zm2-2.4c.2.1.4.2.6.2.4 0 .7-.2.9-.5.2-.3.4-.8.4-1.5 0-.6-.1-1-.4-1.3s-.6-.5-.9-.5c-.3 0-.5.1-.7.2-.2.2-.3.3-.3.4v2.5c.1.2.2.4.4.5z" fill="#999"/></svg>