<?xml version="1.0" encoding="utf-8"?>
<!-- Generator: Adobe Illustrator 15.1.0, SVG Export Plug-In  -->
<!DOCTYPE svg PUBLIC "-//W3C//DTD SVG 1.1//EN" "http://www.w3.org/Graphics/SVG/1.1/DTD/svg11.dtd" [
	<!ENTITY ns_flows "http://ns.adobe.com/Flows/1.0/">
]>
<svg version="1.1"
	 xmlns="http://www.w3.org/2000/svg" xmlns:xlink="http://www.w3.org/1999/xlink" xmlns:a="http://ns.adobe.com/AdobeSVGViewerExtensions/3.0/"
	 x="0px" y="0px" width="12px" height="12px" viewBox="0 0 12 12" style="overflow:visible;enable-background:new 0 0 12 12;"
	 xml:space="preserve">
<defs>
</defs>
<path style="fill:#999999;" d="M11.6,9.5L5.1,3h3C8.6,3,9,2.6,9,2V1c0-0.5-0.4-1-1-1L1,0C0.4,0,0,0.5,0,1v1l0,0l0,6c0,0.5,0.5,1,1,1
	h1c0.5,0,1-0.4,1-0.9V5.2l6.5,6.5c0.4,0.4,1,0.4,1.4,0l0.7-0.7C12,10.6,12,9.9,11.6,9.5z"/>
</svg>
