<svg xmlns="http://www.w3.org/2000/svg" width="100" height="100"><path d="M73.527 61.83q-2.4 7.845-8.947 12.643-6.55 4.798-14.784 4.798-8.234 0-14.783-4.797-6.55-4.798-8.948-12.643-.518-1.62.26-3.145.778-1.524 2.463-2.043 1.62-.518 3.145.26 1.524.778 2.043 2.464 1.62 5.187 5.997 8.396 4.377 3.21 9.823 3.21 5.447 0 9.823-3.21t5.997-8.396q.52-1.686 2.075-2.464 1.556-.778 3.177-.26 1.62.52 2.398 2.043.778 1.524.26 3.145zm-32.03-28.205q0 3.436-2.432 5.868-2.43 2.43-5.867 2.43t-5.868-2.43q-2.432-2.432-2.432-5.868 0-3.437 2.432-5.868 2.43-2.432 5.868-2.432 3.436 0 5.867 2.432 2.432 2.43 2.432 5.868zm33.197 0q0 3.436-2.43 5.868-2.433 2.43-5.87 2.43-3.435 0-5.867-2.43-2.43-2.432-2.43-5.868 0-3.437 2.43-5.868 2.432-2.432 5.868-2.432 3.436 0 5.868 2.432 2.43 2.43 2.43 5.868zm16.6 16.598q0-8.43-3.308-16.112-3.306-7.682-8.85-13.226-5.544-5.544-13.227-8.85-7.685-3.307-16.114-3.307-8.43 0-16.112 3.306Q26 15.34 20.457 20.883q-5.544 5.545-8.85 13.228-3.308 7.684-3.308 16.113 0 8.43 3.306 16.113 3.307 7.683 8.85 13.227 5.544 5.544 13.228 8.85 7.683 3.307 16.112 3.307 8.43 0 16.113-3.306 7.682-3.307 13.226-8.85 5.544-5.545 8.85-13.228 3.307-7.684 3.307-16.113zm8.3 0q0 13.552-6.68 24.996-6.678 11.443-18.122 18.12-11.444 6.68-24.996 6.68-13.55 0-24.995-6.68Q13.358 86.664 6.68 75.22 0 63.774 0 50.222q0-13.55 6.678-24.995Q13.358 13.784 24.8 7.106 36.246.426 49.797.426q13.552 0 24.996 6.68 11.444 6.678 18.122 18.122 6.68 11.444 6.68 24.995z" fill="#999"/></svg>