<svg xmlns="http://www.w3.org/2000/svg" width="100" height="100"><path d="M73.527 61.83q-2.399 7.846-8.948 12.644t-14.783 4.798q-8.235 0-14.783-4.798-6.549-4.798-8.948-12.644-.519-1.621.259-3.145t2.464-2.042q1.621-.519 3.145.259t2.042 2.464q1.621 5.187 5.998 8.397 4.377 3.21 9.823 3.21 5.446 0 9.823-3.21 4.377-3.21 5.998-8.397.519-1.686 2.075-2.464t3.177-.259q1.621.519 2.399 2.042.778 1.524.259 3.145zm-32.03-28.205q0 3.436-2.431 5.868-2.431 2.431-5.868 2.431-3.436 0-5.868-2.431-2.431-2.431-2.431-5.868 0-3.436 2.431-5.868 2.431-2.431 5.868-2.431 3.436 0 5.868 2.431 2.431 2.431 2.431 5.868zm33.198 0q0 3.436-2.431 5.868-2.431 2.431-5.868 2.431-3.436 0-5.868-2.431-2.431-2.431-2.431-5.868 0-3.436 2.431-5.868 2.431-2.431 5.868-2.431 3.436 0 5.868 2.431 2.431 2.431 2.431 5.868zm16.599 16.599q0-8.429-3.307-16.112-3.307-7.683-8.851-13.227-5.544-5.544-13.227-8.851-7.683-3.307-16.112-3.307-8.429 0-16.112 3.307-7.683 3.307-13.227 8.851-5.544 5.544-8.851 13.227-3.307 7.683-3.307 16.112 0 8.429 3.307 16.112 3.307 7.683 8.851 13.227 5.544 5.544 13.227 8.851 7.683 3.307 16.112 3.307 8.429 0 16.112-3.307 7.683-3.307 13.227-8.851 5.544-5.544 8.851-13.227 3.307-7.683 3.307-16.112zm8.299 0q0 13.551-6.678 24.995t-18.122 18.122q-11.444 6.678-24.995 6.678t-24.995-6.678q-11.444-6.678-18.122-18.122-6.678-11.444-6.678-24.995t6.678-24.995q6.678-11.444 18.122-18.122 11.444-6.678 24.995-6.678t24.995 6.678q11.444 6.678 18.122 18.122 6.678 11.444 6.678 24.995z" fill="#999"/></svg>