<svg xmlns="http://www.w3.org/2000/svg" width="35" height="35"><path d="M25.997 21.517q-.848 2.774-3.163 4.47-2.316 1.697-5.227 1.697-2.912 0-5.227-1.697-2.316-1.696-3.164-4.47-.183-.574.092-1.112.275-.54.87-.722.574-.184 1.113.09.54.276.723.872.573 1.834 2.12 2.97 1.548 1.134 3.474 1.134 1.925 0 3.473-1.136 1.547-1.135 2.12-2.97.184-.595.734-.87t1.123-.09q.574.182.85.72.274.54.09 1.113zm-11.325-9.973q0 1.215-.86 2.075-.86.86-2.074.86-1.215 0-2.075-.86-.86-.86-.86-2.076 0-1.215.86-2.075.86-.86 2.075-.86 1.215 0 2.075.86.86.86.86 2.074zm11.738 0q0 1.215-.86 2.075-.86.86-2.074.86-1.215 0-2.075-.86-.86-.86-.86-2.076 0-1.215.86-2.075.86-.86 2.076-.86 1.215 0 2.074.86.86.86.86 2.074zm5.87 5.87q0-2.98-1.17-5.698Q29.94 9 27.98 7.04q-1.96-1.96-4.676-3.13-2.717-1.17-5.697-1.17T11.91 3.91Q9.193 5.08 7.233 7.04 5.273 9 4.103 11.715q-1.17 2.717-1.17 5.697t1.17 5.697q1.17 2.717 3.13 4.677 1.96 1.96 4.677 3.13 2.716 1.168 5.697 1.168 2.98 0 5.697-1.17 2.716-1.168 4.676-3.128 1.96-1.96 3.13-4.677 1.17-2.717 1.17-5.697zm2.933 0q0 4.79-2.36 8.837-2.362 4.047-6.41 6.408-4.045 2.362-8.836 2.362-4.792 0-8.838-2.362-4.047-2.36-6.41-6.407Q0 22.205 0 17.414q0-4.79 2.36-8.838Q4.724 4.53 8.77 2.168q4.045-2.362 8.837-2.362 4.79 0 8.837 2.362 4.047 2.36 6.408 6.407 2.36 4.047 2.36 8.838z" fill="#999"/></svg>