<svg xmlns="http://www.w3.org/2000/svg" width="35" height="35"><path d="M25.997 21.517q-.848 2.774-3.164 4.47-2.315 1.696-5.227 1.696-2.912 0-5.227-1.696-2.315-1.696-3.164-4.47-.183-.573.092-1.112.275-.539.871-.722.573-.183 1.112.092.539.275.722.871.573 1.834 2.121 2.969 1.547 1.135 3.473 1.135t3.473-1.135q1.547-1.135 2.121-2.969.183-.596.734-.871.55-.275 1.123-.092.573.183.848.722.275.539.092 1.112zm-11.325-9.973q0 1.215-.86 2.075-.86.86-2.075.86-1.215 0-2.075-.86-.86-.86-.86-2.075 0-1.215.86-2.075.86-.86 2.075-.86 1.215 0 2.075.86.86.86.86 2.075zm11.738 0q0 1.215-.86 2.075-.86.86-2.075.86-1.215 0-2.075-.86-.86-.86-.86-2.075 0-1.215.86-2.075.86-.86 2.075-.86 1.215 0 2.075.86.86.86.86 2.075zm5.869 5.869q0-2.98-1.169-5.697t-3.129-4.677q-1.96-1.96-4.677-3.129-2.717-1.169-5.697-1.169t-5.697 1.169q-2.717 1.169-4.677 3.129-1.96 1.96-3.129 4.677-1.169 2.717-1.169 5.697t1.169 5.697q1.169 2.717 3.129 4.677 1.96 1.96 4.677 3.129 2.717 1.169 5.697 1.169t5.697-1.169q2.717-1.169 4.677-3.129 1.96-1.96 3.129-4.677 1.169-2.717 1.169-5.697zm2.934 0q0 4.791-2.361 8.838-2.361 4.046-6.408 6.408-4.046 2.361-8.838 2.361-4.791 0-8.838-2.361-4.046-2.361-6.408-6.408-2.361-4.046-2.361-8.838 0-4.791 2.361-8.838 2.361-4.046 6.408-6.408 4.046-2.361 8.838-2.361 4.791 0 8.838 2.361 4.046 2.361 6.408 6.408 2.361 4.046 2.361 8.838z" fill="#999"/></svg>