<svg xmlns="http://www.w3.org/2000/svg" width="12" height="12" preserveAspectRatio="xMinYMid meet"><path d="M10.543 8.603c.395-2.517.72-3.667 1.058-5.137C12.43-.13 9.35.648 8.7.632l.448.938c1.4.4 1.806 1.264.824 4.858" fill="none" stroke="#999" stroke-width=".629" stroke-linecap="round" stroke-linejoin="round"/><path d="M1.858 3.95c-1.005.094-1.874 4.655-.75 5.85 1.347 1.437 5.25 1.92 6.1 1.63 1.892-.646 2.795-1.17 2.85-2.236.08-1.587-.445-7.532-1.702-7.925" fill="none" stroke="#999" stroke-width="1.215"/><path d="M3.478 8.71l-1.12-.484c-.11-.493-.105-.584.147-.66l1.184.28c-.23.097-.295.234-.212.864zM3.464 7.777L2.43 7.524c-.144-.316-.12-.55.138-.693l1.116.24c-.09.094-.29.124-.22.707z" fill="none" stroke="#999" stroke-width=".452" stroke-linecap="round" stroke-linejoin="round"/><path d="M3.603 7.08L2.51 6.834c-.143-.316-.128-.556.13-.698l1.255.257c-.086.068-.71.137-.292.685z" fill="none" stroke="#999" stroke-width=".452" stroke-linecap="round" stroke-linejoin="round"/><path d="M8.8 1.485C6.835.455 6.996 3.3 4.995 5.4c-2.1 2.2-3.01-.63-3.068-.8-.888-2.61 1.187-3.49 2.58-3.88C5.86.344 8.323.36 8.8 1.486z" fill="none" stroke="#999" stroke-width="1.163" stroke-linejoin="round"/><path d="M12.07 8.146c0 2.12-1.634 3.836-3.652 3.836-2.017 0-3.653-1.717-3.653-3.836 0-2.12 1.636-3.836 3.653-3.836 2.018 0 3.653 1.717 3.653 3.836" fill="#fff"/><path d="M2.57 11.917zM11.69 7.75l-2.706-3c-.31-.334-.773-.334-1.082 0L5.198 7.832c-.31.333-.232.75.232.75h1.778v2.5c0 .417.387.834.85.834h.774c.386 0 .696-.417.696-.834v-2.5h1.932c.387 0 .542-.5.232-.833z" fill="#999" overflow="visible"/></svg>